<?xml version="1.0" standalone="no"?>
<!DOCTYPE svg PUBLIC "-//W3C//DTD SVG 20010904//EN"
 "http://www.w3.org/TR/2001/REC-SVG-20010904/DTD/svg10.dtd">
<svg version="1.0" xmlns="http://www.w3.org/2000/svg"
 width="112.000000pt" height="112.000000pt" viewBox="0 0 112.000000 112.000000"
 preserveAspectRatio="xMidYMid meet">
<metadata>
Created by potrace 1.14, written by Peter Selinger 2001-2017
</metadata>
<g transform="translate(0.000000,112.000000) scale(0.100000,-0.100000)"
fill="#000000" stroke="none">
<path d="M173 1114 c-7 -3 -21 -20 -33 -39 -16 -26 -18 -38 -10 -60 5 -14 6
-24 1 -21 -4 3 -8 -8 -9 -25 0 -20 3 -27 11 -22 7 4 6 -1 -2 -11 -13 -15 -13
-19 0 -27 8 -5 9 -9 4 -9 -14 0 -13 -80 0 -80 7 0 7 -3 0 -8 -13 -9 -13 -105
0 -114 7 -5 7 -8 0 -8 -5 0 -10 -18 -11 -39 0 -23 4 -37 10 -34 5 4 6 1 1 -7
-12 -19 -14 -80 -2 -73 6 4 7 1 2 -7 -12 -19 -12 -70 0 -70 7 0 7 -3 0 -8 -13
-9 -13 -105 0 -114 7 -5 6 -8 -1 -8 -12 0 -11 -60 1 -80 5 -9 4 -11 -3 -6 -7
4 -12 1 -12 -9 0 -10 5 -13 12 -9 7 5 8 3 2 -7 -4 -8 -9 -43 -9 -79 -1 -64 13
-111 37 -127 7 -4 71 -8 141 -9 109 -1 131 1 150 16 l22 18 1 509 c1 543 0
554 -48 567 -27 7 -237 7 -255 0z"/>
<path d="M690 1110 c0 -5 -8 -16 -17 -26 -15 -15 -17 -61 -18 -516 0 -528 2
-556 45 -560 51 -3 247 -4 261 0 39 9 42 40 43 377 1 179 -3 325 -7 325 -5 0
-5 5 -1 11 9 16 11 99 2 99 -4 0 -4 10 0 23 4 12 7 33 5 47 -5 59 -5 109 1
118 3 6 2 13 -2 16 -5 3 -8 17 -7 31 2 17 -5 31 -22 45 -23 18 -40 20 -155 19
-70 0 -128 -4 -128 -9z"/>
</g>
</svg>
